# xmcd
#
# Track frame offsets:
#	150
#	10479
#	27614
#	45262
#	54634
#	67779
#	84976
#	96373
#	112720
#	123150
#	136608
#	152263
#	159287
#
# Disc length: 2297 seconds
#
# Revision: 0
# Processed by: cddbd v1.5PL3 Copyright (c) Steve Scherf et al.
# Submitted via: EasyCDDAExtractor 5.0.5.1
#
DISCID=8b08f70d
DTITLE=Rick Lang and Friends - The Season Of My Heart
DYEAR=2003
DGENRE=Christmas
TTITLE0=The Season Of My Heart
TTITLE1=Heavenly Peace
TTITLE2=Decorate The Tree With Love
TTITLE3=Sleigh Bells
TTITLE4=Waltz Of The Falling Snowflakes
TTITLE5=I Dreamed That I Was There
TTITLE6=The Tree They All Passed By
TTITLE7=Christmas Every Day Of The Year
TTITLE8=There's A Song In The Air
TTITLE9=Sleigh Full Of Toys
TTITLE10=Follow The Star
TTITLE11=A Season's Greeting
TTITLE12=Lift Up Your Hearts
EXTD=
EXTT0=
EXTT1=
EXTT2=
EXTT3=
EXTT4=
EXTT5=
EXTT6=
EXTT7=
EXTT8=
EXTT9=
EXTT10=
EXTT11=
EXTT12=
PLAYORDER=
